<?xml version="1.0" encoding="UTF-8" standalone="no"?>
<!DOCTYPE svg PUBLIC "-//W3C//DTD SVG 1.1//EN"
 "http://www.w3.org/Graphics/SVG/1.1/DTD/svg11.dtd">
<!-- Generated by graphviz version 2.38.0 (20140413.2041)
 -->
<!-- Title: dependencies Pages: 1 -->
<svg width="1507pt" height="836pt"
 viewBox="0.00 0.00 1507.47 836.00" xmlns="http://www.w3.org/2000/svg" xmlns:xlink="http://www.w3.org/1999/xlink">
<g id="graph0" class="graph" transform="scale(1 1) rotate(0) translate(4 832)">
<title>dependencies</title>
<polygon fill="white" stroke="none" points="-4,4 -4,-832 1503.47,-832 1503.47,4 -4,4"/>
<!-- N0 -->
<g id="node1" class="node"><title>N0</title>
<ellipse fill="none" stroke="black" cx="182.871" cy="-810" rx="28.5497" ry="18"/>
<text text-anchor="middle" x="182.871" y="-805.8" font-family="Times,serif" font-size="14.00">orion</text>
</g>
<!-- N1 -->
<g id="node2" class="node"><title>N1</title>
<ellipse fill="none" stroke="black" cx="151.871" cy="-162" rx="27" ry="18"/>
<text text-anchor="middle" x="151.871" y="-157.8" font-family="Times,serif" font-size="14.00">net2</text>
</g>
<!-- N0&#45;&gt;N1 -->
<g id="edge1" class="edge"><title>N0&#45;&gt;N1</title>
<path fill="none" stroke="black" d="M168.576,-794.228C146.561,-769.85 106.871,-718.729 106.871,-667 106.871,-667 106.871,-667 106.871,-305 106.871,-262.434 125.473,-215.904 138.757,-188.102"/>
<polygon fill="black" stroke="black" points="141.919,-189.605 143.195,-179.087 135.638,-186.513 141.919,-189.605"/>
</g>
<!-- N2 -->
<g id="node3" class="node"><title>N2</title>
<ellipse fill="none" stroke="black" cx="559.871" cy="-378" rx="59.901" ry="18"/>
<text text-anchor="middle" x="559.871" y="-373.8" font-family="Times,serif" font-size="14.00">rustc&#45;serialize</text>
</g>
<!-- N0&#45;&gt;N2 -->
<g id="edge2" class="edge"><title>N0&#45;&gt;N2</title>
<path fill="none" stroke="black" d="M188.37,-792.33C208.446,-733.982 283.414,-536.818 411.871,-432 437.124,-411.395 471.023,-398.48 500.006,-390.565"/>
<polygon fill="black" stroke="black" points="501.227,-393.865 510.03,-387.97 499.472,-387.088 501.227,-393.865"/>
</g>
<!-- N3 -->
<g id="node4" class="node"><title>N3</title>
<ellipse fill="none" stroke="black" cx="1460.87" cy="-450" rx="38.7042" ry="18"/>
<text text-anchor="middle" x="1460.87" y="-445.8" font-family="Times,serif" font-size="14.00">test_util</text>
</g>
<!-- N0&#45;&gt;N3 -->
<g id="edge3" class="edge"><title>N0&#45;&gt;N3</title>
<path fill="none" stroke="black" d="M211.897,-808.909C401.681,-807.943 1457.87,-796.736 1457.87,-667 1457.87,-667 1457.87,-667 1457.87,-593 1457.87,-552.987 1459.08,-506.646 1459.96,-478.076"/>
<polygon fill="black" stroke="black" points="1463.46,-478.153 1460.28,-468.047 1456.46,-477.93 1463.46,-478.153"/>
</g>
<!-- N4 -->
<g id="node5" class="node"><title>N4</title>
<ellipse fill="none" stroke="black" cx="300.871" cy="-306" rx="27" ry="18"/>
<text text-anchor="middle" x="300.871" y="-301.8" font-family="Times,serif" font-size="14.00">time</text>
</g>
<!-- N0&#45;&gt;N4 -->
<g id="edge4" class="edge"><title>N0&#45;&gt;N4</title>
<path fill="none" stroke="black" d="M185.627,-791.877C188.593,-773.912 193.599,-744.88 198.871,-720 229.98,-573.193 275.963,-399.252 293.611,-333.734"/>
<polygon fill="black" stroke="black" points="297.06,-334.39 296.288,-323.823 290.302,-332.565 297.06,-334.39"/>
</g>
<!-- N5 -->
<g id="node6" class="node"><title>N5</title>
<ellipse fill="none" stroke="black" cx="951.871" cy="-738" rx="47.365" ry="18"/>
<text text-anchor="middle" x="951.871" y="-733.8" font-family="Times,serif" font-size="14.00">websocket</text>
</g>
<!-- N0&#45;&gt;N5 -->
<g id="edge5" class="edge"><title>N0&#45;&gt;N5</title>
<path fill="none" stroke="black" d="M211.153,-806.426C324.06,-796.148 743.776,-757.942 896.147,-744.072"/>
<polygon fill="black" stroke="black" points="896.578,-747.548 906.219,-743.156 895.943,-740.577 896.578,-747.548"/>
</g>
<!-- N7 -->
<g id="node8" class="node"><title>N7</title>
<ellipse fill="none" stroke="black" cx="406.871" cy="-18" rx="34.3527" ry="18"/>
<text text-anchor="middle" x="406.871" y="-13.8" font-family="Times,serif" font-size="14.00">winapi</text>
</g>
<!-- N1&#45;&gt;N7 -->
<g id="edge6" class="edge"><title>N1&#45;&gt;N7</title>
<path fill="none" stroke="black" d="M163.519,-145.488C180.88,-122.746 213.177,-81.9684 228.871,-72 278.756,-40.3159 300.432,-53.5179 356.871,-36 360.96,-34.7311 365.22,-33.3596 369.453,-31.9652"/>
<polygon fill="black" stroke="black" points="370.816,-35.1999 379.188,-28.7072 368.594,-28.5617 370.816,-35.1999"/>
</g>
<!-- N11 -->
<g id="node12" class="node"><title>N11</title>
<ellipse fill="none" stroke="black" cx="151.871" cy="-90" rx="29.9931" ry="18"/>
<text text-anchor="middle" x="151.871" y="-85.8" font-family="Times,serif" font-size="14.00">cfg&#45;if</text>
</g>
<!-- N1&#45;&gt;N11 -->
<g id="edge7" class="edge"><title>N1&#45;&gt;N11</title>
<path fill="none" stroke="black" d="M151.871,-143.697C151.871,-135.983 151.871,-126.712 151.871,-118.112"/>
<polygon fill="black" stroke="black" points="155.372,-118.104 151.871,-108.104 148.372,-118.104 155.372,-118.104"/>
</g>
<!-- N27 -->
<g id="node28" class="node"><title>N27</title>
<ellipse fill="none" stroke="black" cx="292.871" cy="-90" rx="55.0922" ry="18"/>
<text text-anchor="middle" x="292.871" y="-85.8" font-family="Times,serif" font-size="14.00">kernel32&#45;sys</text>
</g>
<!-- N1&#45;&gt;N27 -->
<g id="edge8" class="edge"><title>N1&#45;&gt;N27</title>
<path fill="none" stroke="black" d="M172.981,-150.52C194.465,-139.854 228.248,-123.083 254.484,-110.057"/>
<polygon fill="black" stroke="black" points="256.372,-113.028 263.772,-105.446 253.259,-106.758 256.372,-113.028"/>
</g>
<!-- N29 -->
<g id="node30" class="node"><title>N29</title>
<ellipse fill="none" stroke="black" cx="553.871" cy="-90" rx="27" ry="18"/>
<text text-anchor="middle" x="553.871" y="-85.8" font-family="Times,serif" font-size="14.00">libc</text>
</g>
<!-- N1&#45;&gt;N29 -->
<g id="edge9" class="edge"><title>N1&#45;&gt;N29</title>
<path fill="none" stroke="black" d="M177.63,-156.515C247.036,-144.429 438.089,-111.161 517.998,-97.2466"/>
<polygon fill="black" stroke="black" points="518.817,-100.657 528.068,-95.4931 517.616,-93.7606 518.817,-100.657"/>
</g>
<!-- N34 -->
<g id="node35" class="node"><title>N34</title>
<ellipse fill="none" stroke="black" cx="51.8715" cy="-90" rx="51.7433" ry="18"/>
<text text-anchor="middle" x="51.8715" y="-85.8" font-family="Times,serif" font-size="14.00">ws2_32&#45;sys</text>
</g>
<!-- N1&#45;&gt;N34 -->
<g id="edge10" class="edge"><title>N1&#45;&gt;N34</title>
<path fill="none" stroke="black" d="M133.993,-148.485C119.642,-138.439 99.1664,-124.106 82.2516,-112.266"/>
<polygon fill="black" stroke="black" points="83.9816,-109.205 73.7821,-106.337 79.9673,-114.939 83.9816,-109.205"/>
</g>
<!-- N3&#45;&gt;N2 -->
<g id="edge11" class="edge"><title>N3&#45;&gt;N2</title>
<path fill="none" stroke="black" d="M1426.72,-441.188C1411.01,-437.867 1392.08,-434.25 1374.87,-432 1301.83,-422.446 810.275,-393.476 627.844,-382.91"/>
<polygon fill="black" stroke="black" points="628.019,-379.414 617.833,-382.331 627.614,-386.403 628.019,-379.414"/>
</g>
<!-- N36 -->
<g id="node37" class="node"><title>N36</title>
<ellipse fill="none" stroke="black" cx="812.871" cy="-162" rx="27" ry="18"/>
<text text-anchor="middle" x="812.871" y="-157.8" font-family="Times,serif" font-size="14.00">rand</text>
</g>
<!-- N3&#45;&gt;N36 -->
<g id="edge12" class="edge"><title>N3&#45;&gt;N36</title>
<path fill="none" stroke="black" d="M1442.24,-433.968C1378.98,-382.969 1175.92,-219.497 1167.87,-216 1059.38,-168.843 916.568,-162.48 850.005,-162.341"/>
<polygon fill="black" stroke="black" points="849.984,-158.841 839.993,-162.367 850.002,-165.841 849.984,-158.841"/>
</g>
<!-- N4&#45;&gt;N7 -->
<g id="edge13" class="edge"><title>N4&#45;&gt;N7</title>
<path fill="none" stroke="black" d="M306.504,-287.987C316.324,-258.515 337.396,-196.117 356.871,-144 369.728,-109.595 385.641,-70.3293 396.013,-45.1334"/>
<polygon fill="black" stroke="black" points="399.249,-46.4666 399.831,-35.8877 392.779,-43.795 399.249,-46.4666"/>
</g>
<!-- N4&#45;&gt;N27 -->
<g id="edge14" class="edge"><title>N4&#45;&gt;N27</title>
<path fill="none" stroke="black" d="M300.23,-287.849C298.846,-250.832 295.57,-163.181 293.895,-118.386"/>
<polygon fill="black" stroke="black" points="297.387,-118.095 293.516,-108.232 290.392,-118.356 297.387,-118.095"/>
</g>
<!-- N4&#45;&gt;N29 -->
<g id="edge15" class="edge"><title>N4&#45;&gt;N29</title>
<path fill="none" stroke="black" d="M319.254,-292.533C350.633,-270.955 416.066,-224.659 466.871,-180 491.154,-158.655 516.772,-131.858 533.868,-113.274"/>
<polygon fill="black" stroke="black" points="536.487,-115.597 540.645,-105.852 531.318,-110.877 536.487,-115.597"/>
</g>
<!-- N5&#45;&gt;N1 -->
<g id="edge16" class="edge"><title>N5&#45;&gt;N1</title>
<path fill="none" stroke="black" d="M904.314,-736.373C786.755,-734.208 485.46,-724.731 394.871,-684 256.344,-621.715 144.871,-602.886 144.871,-451 144.871,-451 144.871,-451 144.871,-305 144.871,-264.947 147.684,-218.617 149.743,-190.06"/>
<polygon fill="black" stroke="black" points="153.238,-190.268 150.488,-180.036 146.257,-189.749 153.238,-190.268"/>
</g>
<!-- N5&#45;&gt;N2 -->
<g id="edge17" class="edge"><title>N5&#45;&gt;N2</title>
<path fill="none" stroke="black" d="M904.212,-736.419C793.711,-734.378 523.395,-725.195 443.871,-684 406.116,-664.442 395.827,-651.804 380.871,-612 356.297,-546.595 422.69,-451.597 441.871,-432 459.318,-414.175 483.837,-401.841 506.007,-393.588"/>
<polygon fill="black" stroke="black" points="507.395,-396.81 515.665,-390.188 505.07,-390.207 507.395,-396.81"/>
</g>
<!-- N9 -->
<g id="node10" class="node"><title>N9</title>
<ellipse fill="none" stroke="black" cx="1239.87" cy="-450" rx="36.2992" ry="18"/>
<text text-anchor="middle" x="1239.87" y="-445.8" font-family="Times,serif" font-size="14.00">bitflags</text>
</g>
<!-- N5&#45;&gt;N9 -->
<g id="edge18" class="edge"><title>N5&#45;&gt;N9</title>
<path fill="none" stroke="black" d="M999.153,-735.89C1087.96,-732.919 1275.3,-722.18 1325.87,-684 1390.72,-635.041 1402.01,-572.218 1357.87,-504 1353.08,-496.599 1309.79,-478.342 1277.01,-465.328"/>
<polygon fill="black" stroke="black" points="1278.25,-462.053 1267.66,-461.642 1275.68,-468.565 1278.25,-462.053"/>
</g>
<!-- N10 -->
<g id="node11" class="node"><title>N10</title>
<ellipse fill="none" stroke="black" cx="1252.87" cy="-666" rx="43.9819" ry="18"/>
<text text-anchor="middle" x="1252.87" y="-661.8" font-family="Times,serif" font-size="14.00">byteorder</text>
</g>
<!-- N5&#45;&gt;N10 -->
<g id="edge19" class="edge"><title>N5&#45;&gt;N10</title>
<path fill="none" stroke="black" d="M992.923,-728.964C1041.41,-719.263 1124.37,-701.996 1194.87,-684 1199.46,-682.829 1204.23,-681.542 1208.98,-680.218"/>
<polygon fill="black" stroke="black" points="1209.97,-683.574 1218.63,-677.469 1208.06,-676.842 1209.97,-683.574"/>
</g>
<!-- N13 -->
<g id="node14" class="node"><title>N13</title>
<ellipse fill="none" stroke="black" cx="1175.87" cy="-522" rx="36.775" ry="18"/>
<text text-anchor="middle" x="1175.87" y="-517.8" font-family="Times,serif" font-size="14.00">openssl</text>
</g>
<!-- N5&#45;&gt;N13 -->
<g id="edge20" class="edge"><title>N5&#45;&gt;N13</title>
<path fill="none" stroke="black" d="M994.942,-730.207C1054.8,-718.198 1161.04,-686.986 1207.87,-612 1220.49,-591.802 1208.54,-565.924 1195.81,-547.285"/>
<polygon fill="black" stroke="black" points="1198.51,-545.051 1189.8,-539.026 1192.85,-549.17 1198.51,-545.051"/>
</g>
<!-- N14 -->
<g id="node15" class="node"><title>N14</title>
<ellipse fill="none" stroke="black" cx="523.871" cy="-522" rx="27" ry="18"/>
<text text-anchor="middle" x="523.871" y="-517.8" font-family="Times,serif" font-size="14.00">url</text>
</g>
<!-- N5&#45;&gt;N14 -->
<g id="edge21" class="edge"><title>N5&#45;&gt;N14</title>
<path fill="none" stroke="black" d="M905.656,-733.931C783.307,-724.745 455.961,-692.92 391.871,-612 381.938,-599.457 382.91,-589.255 391.871,-576 412.997,-544.753 455.9,-531.926 487.076,-526.661"/>
<polygon fill="black" stroke="black" points="487.781,-530.095 497.151,-525.15 486.742,-523.172 487.781,-530.095"/>
</g>
<!-- N19 -->
<g id="node20" class="node"><title>N19</title>
<ellipse fill="none" stroke="black" cx="736.871" cy="-666" rx="30.4862" ry="18"/>
<text text-anchor="middle" x="736.871" y="-661.8" font-family="Times,serif" font-size="14.00">hyper</text>
</g>
<!-- N5&#45;&gt;N19 -->
<g id="edge22" class="edge"><title>N5&#45;&gt;N19</title>
<path fill="none" stroke="black" d="M916.849,-725.597C877.031,-712.633 812.378,-691.584 772.365,-678.556"/>
<polygon fill="black" stroke="black" points="773.345,-675.194 762.753,-675.427 771.178,-681.85 773.345,-675.194"/>
</g>
<!-- N26 -->
<g id="node27" class="node"><title>N26</title>
<ellipse fill="none" stroke="black" cx="1311.87" cy="-594" rx="36.7489" ry="18"/>
<text text-anchor="middle" x="1311.87" y="-589.8" font-family="Times,serif" font-size="14.00">unicase</text>
</g>
<!-- N5&#45;&gt;N26 -->
<g id="edge23" class="edge"><title>N5&#45;&gt;N26</title>
<path fill="none" stroke="black" d="M999.263,-736.948C1086.06,-735.765 1265.38,-727.921 1305.87,-684 1320.91,-667.688 1321,-641.763 1318.15,-622.091"/>
<polygon fill="black" stroke="black" points="1321.59,-621.424 1316.41,-612.183 1314.7,-622.638 1321.59,-621.424"/>
</g>
<!-- N5&#45;&gt;N36 -->
<g id="edge24" class="edge"><title>N5&#45;&gt;N36</title>
<path fill="none" stroke="black" d="M999.107,-736.108C1093.15,-733.495 1299.68,-723.318 1356.87,-684 1449.4,-620.391 1439.46,-523.852 1374.87,-432 1316.2,-348.561 1063.51,-256.449 969.871,-216 928.645,-198.191 879.318,-182.394 847.1,-172.777"/>
<polygon fill="black" stroke="black" points="847.854,-169.351 837.272,-169.877 845.873,-176.064 847.854,-169.351"/>
</g>
<!-- N6 -->
<g id="node7" class="node"><title>N6</title>
<ellipse fill="none" stroke="black" cx="655.871" cy="-90" rx="56.5459" ry="18"/>
<text text-anchor="middle" x="655.871" y="-85.8" font-family="Times,serif" font-size="14.00">advapi32&#45;sys</text>
</g>
<!-- N6&#45;&gt;N7 -->
<g id="edge25" class="edge"><title>N6&#45;&gt;N7</title>
<path fill="none" stroke="black" d="M614.754,-77.4409C568.01,-64.2999 492.242,-42.9998 446.238,-30.0668"/>
<polygon fill="black" stroke="black" points="446.91,-26.6202 436.336,-27.2832 445.016,-33.359 446.91,-26.6202"/>
</g>
<!-- N8 -->
<g id="node9" class="node"><title>N8</title>
<ellipse fill="none" stroke="black" cx="292.871" cy="-18" rx="55.1008" ry="18"/>
<text text-anchor="middle" x="292.871" y="-13.8" font-family="Times,serif" font-size="14.00">winapi&#45;build</text>
</g>
<!-- N6&#45;&gt;N8 -->
<g id="edge26" class="edge"><title>N6&#45;&gt;N8</title>
<path fill="none" stroke="black" d="M614.113,-77.6116C606.098,-75.6055 597.749,-73.6381 589.871,-72 490.291,-51.292 463.625,-55.8567 363.871,-36 357.753,-34.7821 351.363,-33.4041 345.032,-31.9726"/>
<polygon fill="black" stroke="black" points="345.71,-28.5372 335.178,-29.6944 344.133,-35.3572 345.71,-28.5372"/>
</g>
<!-- N12 -->
<g id="node13" class="node"><title>N12</title>
<ellipse fill="none" stroke="black" cx="570.871" cy="-594" rx="33.8596" ry="18"/>
<text text-anchor="middle" x="570.871" y="-589.8" font-family="Times,serif" font-size="14.00">cookie</text>
</g>
<!-- N12&#45;&gt;N2 -->
<g id="edge27" class="edge"><title>N12&#45;&gt;N2</title>
<path fill="none" stroke="black" d="M569.99,-575.849C568.087,-538.832 563.582,-451.181 561.279,-406.386"/>
<polygon fill="black" stroke="black" points="564.766,-406.04 560.757,-396.232 557.775,-406.399 564.766,-406.04"/>
</g>
<!-- N12&#45;&gt;N4 -->
<g id="edge28" class="edge"><title>N12&#45;&gt;N4</title>
<path fill="none" stroke="black" d="M547.634,-580.885C530.166,-571.158 506.195,-556.443 487.871,-540 414.017,-473.721 346.108,-376.373 316.508,-331.413"/>
<polygon fill="black" stroke="black" points="319.343,-329.354 310.946,-322.893 313.482,-333.18 319.343,-329.354"/>
</g>
<!-- N12&#45;&gt;N13 -->
<g id="edge29" class="edge"><title>N12&#45;&gt;N13</title>
<path fill="none" stroke="black" d="M602.629,-587.966C626.564,-584.294 660.221,-579.386 689.871,-576 876.013,-554.744 925.183,-571.475 1109.87,-540 1118.16,-538.587 1126.94,-536.647 1135.29,-534.583"/>
<polygon fill="black" stroke="black" points="1136.4,-537.913 1145.21,-532.03 1134.65,-531.134 1136.4,-537.913"/>
</g>
<!-- N12&#45;&gt;N14 -->
<g id="edge30" class="edge"><title>N12&#45;&gt;N14</title>
<path fill="none" stroke="black" d="M559.971,-576.765C554.074,-567.983 546.675,-556.963 540.114,-547.19"/>
<polygon fill="black" stroke="black" points="542.87,-545.017 534.39,-538.666 537.059,-548.919 542.87,-545.017"/>
</g>
<!-- N13&#45;&gt;N9 -->
<g id="edge31" class="edge"><title>N13&#45;&gt;N9</title>
<path fill="none" stroke="black" d="M1190.39,-505.116C1198.74,-495.987 1209.38,-484.355 1218.64,-474.217"/>
<polygon fill="black" stroke="black" points="1221.24,-476.563 1225.41,-466.821 1216.08,-471.84 1221.24,-476.563"/>
</g>
<!-- N28 -->
<g id="node29" class="node"><title>N28</title>
<ellipse fill="none" stroke="black" cx="933.871" cy="-450" rx="47.841" ry="18"/>
<text text-anchor="middle" x="933.871" y="-445.8" font-family="Times,serif" font-size="14.00">lazy_static</text>
</g>
<!-- N13&#45;&gt;N28 -->
<g id="edge32" class="edge"><title>N13&#45;&gt;N28</title>
<path fill="none" stroke="black" d="M1144.75,-512.194C1107.96,-501.76 1044.91,-483.797 990.871,-468 987.291,-466.953 983.586,-465.863 979.863,-464.763"/>
<polygon fill="black" stroke="black" points="980.621,-461.338 970.038,-461.851 978.631,-468.049 980.621,-461.338"/>
</g>
<!-- N13&#45;&gt;N29 -->
<g id="edge33" class="edge"><title>N13&#45;&gt;N29</title>
<path fill="none" stroke="black" d="M1179.2,-503.865C1182.76,-485.891 1188.75,-456.852 1194.87,-432 1208.68,-375.984 1229.87,-364.692 1229.87,-307 1229.87,-307 1229.87,-307 1229.87,-233 1229.87,-88.0905 728.745,-149.388 589.871,-108 587.934,-107.423 585.969,-106.755 584.009,-106.026"/>
<polygon fill="black" stroke="black" points="584.964,-102.631 574.388,-101.994 582.258,-109.087 584.964,-102.631"/>
</g>
<!-- N37 -->
<g id="node38" class="node"><title>N37</title>
<ellipse fill="none" stroke="black" cx="1050.87" cy="-450" rx="50.7741" ry="18"/>
<text text-anchor="middle" x="1050.87" y="-445.8" font-family="Times,serif" font-size="14.00">openssl&#45;sys</text>
</g>
<!-- N13&#45;&gt;N37 -->
<g id="edge34" class="edge"><title>N13&#45;&gt;N37</title>
<path fill="none" stroke="black" d="M1152.65,-507.998C1133.87,-497.48 1107.13,-482.507 1085.78,-470.546"/>
<polygon fill="black" stroke="black" points="1087.43,-467.459 1076.99,-465.626 1084,-473.566 1087.43,-467.459"/>
</g>
<!-- N14&#45;&gt;N2 -->
<g id="edge35" class="edge"><title>N14&#45;&gt;N2</title>
<path fill="none" stroke="black" d="M528.48,-503.832C531.245,-493.467 534.807,-479.987 537.871,-468 543.16,-447.312 548.948,-423.866 553.259,-406.233"/>
<polygon fill="black" stroke="black" points="556.765,-406.627 555.734,-396.082 549.965,-404.968 556.765,-406.627"/>
</g>
<!-- N32 -->
<g id="node33" class="node"><title>N32</title>
<ellipse fill="none" stroke="black" cx="489.871" cy="-450" rx="39.1627" ry="18"/>
<text text-anchor="middle" x="489.871" y="-445.8" font-family="Times,serif" font-size="14.00">matches</text>
</g>
<!-- N14&#45;&gt;N32 -->
<g id="edge36" class="edge"><title>N14&#45;&gt;N32</title>
<path fill="none" stroke="black" d="M515.986,-504.765C511.967,-496.491 506.984,-486.232 502.452,-476.9"/>
<polygon fill="black" stroke="black" points="505.468,-475.099 497.951,-467.633 499.171,-478.158 505.468,-475.099"/>
</g>
<!-- N42 -->
<g id="node43" class="node"><title>N42</title>
<ellipse fill="none" stroke="black" cx="687.871" cy="-450" rx="27" ry="18"/>
<text text-anchor="middle" x="687.871" y="-445.8" font-family="Times,serif" font-size="14.00">uuid</text>
</g>
<!-- N14&#45;&gt;N42 -->
<g id="edge37" class="edge"><title>N14&#45;&gt;N42</title>
<path fill="none" stroke="black" d="M545.989,-511.559C574.355,-499.452 623.743,-478.372 656.12,-464.552"/>
<polygon fill="black" stroke="black" points="657.757,-467.659 665.58,-460.515 655.009,-461.221 657.757,-467.659"/>
</g>
<!-- N15 -->
<g id="node16" class="node"><title>N15</title>
<ellipse fill="none" stroke="black" cx="740.871" cy="-162" rx="27" ry="18"/>
<text text-anchor="middle" x="740.871" y="-157.8" font-family="Times,serif" font-size="14.00">gcc</text>
</g>
<!-- N15&#45;&gt;N6 -->
<g id="edge38" class="edge"><title>N15&#45;&gt;N6</title>
<path fill="none" stroke="black" d="M724.483,-147.503C712.897,-137.962 697.085,-124.94 683.56,-113.802"/>
<polygon fill="black" stroke="black" points="685.437,-110.814 675.492,-107.158 680.987,-116.217 685.437,-110.814"/>
</g>
<!-- N15&#45;&gt;N7 -->
<g id="edge39" class="edge"><title>N15&#45;&gt;N7</title>
<path fill="none" stroke="black" d="M742.448,-143.905C743.286,-123.726 741.274,-90.5735 721.871,-72 683.803,-35.5571 528.634,-24.0131 451.225,-20.484"/>
<polygon fill="black" stroke="black" points="450.979,-16.9703 440.838,-20.0375 450.679,-23.9639 450.979,-16.9703"/>
</g>
<!-- N16 -->
<g id="node17" class="node"><title>N16</title>
<ellipse fill="none" stroke="black" cx="771.871" cy="-522" rx="31.4462" ry="18"/>
<text text-anchor="middle" x="771.871" y="-517.8" font-family="Times,serif" font-size="14.00">hpack</text>
</g>
<!-- N17 -->
<g id="node18" class="node"><title>N17</title>
<ellipse fill="none" stroke="black" cx="762.871" cy="-450" rx="27" ry="18"/>
<text text-anchor="middle" x="762.871" y="-445.8" font-family="Times,serif" font-size="14.00">log</text>
</g>
<!-- N16&#45;&gt;N17 -->
<g id="edge40" class="edge"><title>N16&#45;&gt;N17</title>
<path fill="none" stroke="black" d="M769.647,-503.697C768.655,-495.983 767.463,-486.712 766.357,-478.112"/>
<polygon fill="black" stroke="black" points="769.817,-477.576 765.071,-468.104 762.874,-478.469 769.817,-477.576"/>
</g>
<!-- N17&#45;&gt;N29 -->
<g id="edge41" class="edge"><title>N17&#45;&gt;N29</title>
<path fill="none" stroke="black" d="M743.363,-437.232C710.553,-415.782 647.871,-366.957 647.871,-307 647.871,-307 647.871,-307 647.871,-233 647.871,-182.681 606.322,-136.504 578.471,-111.204"/>
<polygon fill="black" stroke="black" points="580.494,-108.321 570.677,-104.338 575.867,-113.574 580.494,-108.321"/>
</g>
<!-- N18 -->
<g id="node19" class="node"><title>N18</title>
<ellipse fill="none" stroke="black" cx="736.871" cy="-594" rx="38.2024" ry="18"/>
<text text-anchor="middle" x="736.871" y="-589.8" font-family="Times,serif" font-size="14.00">httparse</text>
</g>
<!-- N19&#45;&gt;N2 -->
<g id="edge42" class="edge"><title>N19&#45;&gt;N2</title>
<path fill="none" stroke="black" d="M719.931,-650.865C708.546,-640.803 693.701,-626.538 682.871,-612 631.683,-543.281 589.546,-450.367 570.624,-405.466"/>
<polygon fill="black" stroke="black" points="573.813,-404.018 566.735,-396.134 567.351,-406.711 573.813,-404.018"/>
</g>
<!-- N19&#45;&gt;N4 -->
<g id="edge43" class="edge"><title>N19&#45;&gt;N4</title>
<path fill="none" stroke="black" d="M706.48,-664.669C626.403,-663.198 412.125,-655.221 358.871,-612 274.975,-543.909 286.906,-395.435 296.031,-334.22"/>
<polygon fill="black" stroke="black" points="299.515,-334.599 297.623,-324.174 292.601,-333.503 299.515,-334.599"/>
</g>
<!-- N19&#45;&gt;N12 -->
<g id="edge44" class="edge"><title>N19&#45;&gt;N12</title>
<path fill="none" stroke="black" d="M712.734,-654.821C684.619,-642.966 637.941,-623.282 605.855,-609.752"/>
<polygon fill="black" stroke="black" points="606.976,-606.426 596.402,-605.766 604.256,-612.876 606.976,-606.426"/>
</g>
<!-- N19&#45;&gt;N13 -->
<g id="edge45" class="edge"><title>N19&#45;&gt;N13</title>
<path fill="none" stroke="black" d="M767.176,-663.744C864.079,-659.42 1161.71,-643.647 1189.87,-612 1204.99,-595.006 1198.42,-568.598 1189.91,-548.956"/>
<polygon fill="black" stroke="black" points="1192.96,-547.214 1185.53,-539.658 1186.63,-550.196 1192.96,-547.214"/>
</g>
<!-- N19&#45;&gt;N14 -->
<g id="edge46" class="edge"><title>N19&#45;&gt;N14</title>
<path fill="none" stroke="black" d="M707.25,-661.795C655.129,-655.493 550.393,-639.642 527.871,-612 513.94,-594.902 514.288,-569.238 517.329,-549.856"/>
<polygon fill="black" stroke="black" points="520.806,-550.305 519.223,-539.829 513.928,-549.006 520.806,-550.305"/>
</g>
<!-- N19&#45;&gt;N17 -->
<g id="edge47" class="edge"><title>N19&#45;&gt;N17</title>
<path fill="none" stroke="black" d="M719.007,-650.859C708.322,-641.206 695.719,-627.407 689.871,-612 684.194,-597.041 685.696,-591.446 689.871,-576 700.327,-537.324 726.071,-498.342 744.006,-474.435"/>
<polygon fill="black" stroke="black" points="746.908,-476.402 750.218,-466.337 741.354,-472.141 746.908,-476.402"/>
</g>
<!-- N19&#45;&gt;N18 -->
<g id="edge48" class="edge"><title>N19&#45;&gt;N18</title>
<path fill="none" stroke="black" d="M736.871,-647.697C736.871,-639.983 736.871,-630.712 736.871,-622.112"/>
<polygon fill="black" stroke="black" points="740.372,-622.104 736.871,-612.104 733.372,-622.104 740.372,-622.104"/>
</g>
<!-- N20 -->
<g id="node21" class="node"><title>N20</title>
<ellipse fill="none" stroke="black" cx="851.871" cy="-594" rx="59.4339" ry="18"/>
<text text-anchor="middle" x="851.871" y="-589.8" font-family="Times,serif" font-size="14.00">language&#45;tags</text>
</g>
<!-- N19&#45;&gt;N20 -->
<g id="edge49" class="edge"><title>N19&#45;&gt;N20</title>
<path fill="none" stroke="black" d="M757.166,-652.647C773.942,-642.436 798.12,-627.718 817.848,-615.71"/>
<polygon fill="black" stroke="black" points="819.834,-618.598 826.556,-610.409 816.195,-612.619 819.834,-618.598"/>
</g>
<!-- N21 -->
<g id="node22" class="node"><title>N21</title>
<ellipse fill="none" stroke="black" cx="1150.87" cy="-594" rx="30.4949" ry="18"/>
<text text-anchor="middle" x="1150.87" y="-589.8" font-family="Times,serif" font-size="14.00">mime</text>
</g>
<!-- N19&#45;&gt;N21 -->
<g id="edge50" class="edge"><title>N19&#45;&gt;N21</title>
<path fill="none" stroke="black" d="M767.094,-663.501C831.568,-659.703 986.918,-647.354 1111.87,-612 1114.15,-611.355 1116.47,-610.605 1118.78,-609.787"/>
<polygon fill="black" stroke="black" points="1120.11,-613.026 1128.15,-606.128 1117.57,-606.505 1120.11,-613.026"/>
</g>
<!-- N22 -->
<g id="node23" class="node"><title>N22</title>
<ellipse fill="none" stroke="black" cx="411.871" cy="-162" rx="46.4218" ry="18"/>
<text text-anchor="middle" x="411.871" y="-157.8" font-family="Times,serif" font-size="14.00">num_cpus</text>
</g>
<!-- N19&#45;&gt;N22 -->
<g id="edge51" class="edge"><title>N19&#45;&gt;N22</title>
<path fill="none" stroke="black" d="M706.626,-665.143C630.181,-664.795 432.419,-659.253 391.871,-612 285.129,-487.607 367.035,-265.028 399.862,-189.162"/>
<polygon fill="black" stroke="black" points="403.135,-190.415 403.966,-179.853 396.73,-187.592 403.135,-190.415"/>
</g>
<!-- N23 -->
<g id="node24" class="node"><title>N23</title>
<ellipse fill="none" stroke="black" cx="1070.87" cy="-594" rx="31.948" ry="18"/>
<text text-anchor="middle" x="1070.87" y="-589.8" font-family="Times,serif" font-size="14.00">solicit</text>
</g>
<!-- N19&#45;&gt;N23 -->
<g id="edge52" class="edge"><title>N19&#45;&gt;N23</title>
<path fill="none" stroke="black" d="M766.465,-661.773C819.888,-655.482 935.643,-639.709 1029.87,-612 1032.33,-611.277 1034.84,-610.455 1037.35,-609.572"/>
<polygon fill="black" stroke="black" points="1038.79,-612.768 1046.9,-605.944 1036.31,-606.224 1038.79,-612.768"/>
</g>
<!-- N24 -->
<g id="node25" class="node"><title>N24</title>
<ellipse fill="none" stroke="black" cx="974.871" cy="-594" rx="45.9114" ry="18"/>
<text text-anchor="middle" x="974.871" y="-589.8" font-family="Times,serif" font-size="14.00">traitobject</text>
</g>
<!-- N19&#45;&gt;N24 -->
<g id="edge53" class="edge"><title>N19&#45;&gt;N24</title>
<path fill="none" stroke="black" d="M763.585,-657.425C799.264,-647.271 864.419,-628.599 919.871,-612 923.229,-610.995 926.698,-609.947 930.185,-608.885"/>
<polygon fill="black" stroke="black" points="931.448,-612.159 939.986,-605.886 929.399,-605.466 931.448,-612.159"/>
</g>
<!-- N25 -->
<g id="node26" class="node"><title>N25</title>
<ellipse fill="none" stroke="black" cx="440.871" cy="-594" rx="40.123" ry="18"/>
<text text-anchor="middle" x="440.871" y="-589.8" font-family="Times,serif" font-size="14.00">typeable</text>
</g>
<!-- N19&#45;&gt;N25 -->
<g id="edge54" class="edge"><title>N19&#45;&gt;N25</title>
<path fill="none" stroke="black" d="M708.359,-659.614C662.904,-650.837 571.343,-632.368 494.871,-612 490.589,-610.859 486.139,-609.593 481.715,-608.281"/>
<polygon fill="black" stroke="black" points="482.729,-604.931 472.143,-605.365 480.689,-611.627 482.729,-604.931"/>
</g>
<!-- N19&#45;&gt;N26 -->
<g id="edge55" class="edge"><title>N19&#45;&gt;N26</title>
<path fill="none" stroke="black" d="M766.843,-662.573C843.17,-656.211 1051.01,-637.743 1222.87,-612 1237.77,-609.769 1253.97,-606.828 1268.42,-604.021"/>
<polygon fill="black" stroke="black" points="1269.46,-607.384 1278.59,-602.013 1268.1,-600.517 1269.46,-607.384"/>
</g>
<!-- N21&#45;&gt;N17 -->
<g id="edge56" class="edge"><title>N21&#45;&gt;N17</title>
<path fill="none" stroke="black" d="M1127.41,-582.635C1122.3,-580.417 1116.91,-578.107 1111.87,-576 1032.37,-542.781 1013.59,-531.302 931.871,-504 873.789,-484.596 856.339,-489.157 798.871,-468 797.023,-467.319 795.14,-466.58 793.253,-465.802"/>
<polygon fill="black" stroke="black" points="794.489,-462.523 783.926,-461.703 791.672,-468.931 794.489,-462.523"/>
</g>
<!-- N33 -->
<g id="node34" class="node"><title>N33</title>
<ellipse fill="none" stroke="black" cx="1071.87" cy="-522" rx="28.5325" ry="18"/>
<text text-anchor="middle" x="1071.87" y="-517.8" font-family="Times,serif" font-size="14.00">serde</text>
</g>
<!-- N21&#45;&gt;N33 -->
<g id="edge57" class="edge"><title>N21&#45;&gt;N33</title>
<path fill="none" stroke="black" d="M1134.5,-578.496C1123.31,-568.575 1108.28,-555.262 1095.75,-544.163"/>
<polygon fill="black" stroke="black" points="1097.75,-541.258 1087.95,-537.246 1093.11,-546.497 1097.75,-541.258"/>
</g>
<!-- N22&#45;&gt;N7 -->
<g id="edge58" class="edge"><title>N22&#45;&gt;N7</title>
<path fill="none" stroke="black" d="M411.268,-143.871C410.416,-119.67 408.851,-75.2108 407.836,-46.3932"/>
<polygon fill="black" stroke="black" points="411.327,-46.0599 407.477,-36.1893 404.331,-46.3063 411.327,-46.0599"/>
</g>
<!-- N22&#45;&gt;N27 -->
<g id="edge59" class="edge"><title>N22&#45;&gt;N27</title>
<path fill="none" stroke="black" d="M387.503,-146.666C370.127,-136.445 346.524,-122.56 327.238,-111.215"/>
<polygon fill="black" stroke="black" points="328.835,-108.094 318.441,-106.041 325.286,-114.128 328.835,-108.094"/>
</g>
<!-- N22&#45;&gt;N29 -->
<g id="edge60" class="edge"><title>N22&#45;&gt;N29</title>
<path fill="none" stroke="black" d="M439.588,-147.337C463.778,-135.412 498.808,-118.144 523.699,-105.874"/>
<polygon fill="black" stroke="black" points="525.276,-108.999 532.698,-101.438 522.181,-102.72 525.276,-108.999"/>
</g>
<!-- N23&#45;&gt;N16 -->
<g id="edge61" class="edge"><title>N23&#45;&gt;N16</title>
<path fill="none" stroke="black" d="M1046.89,-582.075C1041.38,-579.84 1035.49,-577.665 1029.87,-576 945.796,-551.069 921.422,-559.271 835.871,-540 827.246,-538.057 818.027,-535.747 809.35,-533.466"/>
<polygon fill="black" stroke="black" points="810.045,-530.029 799.48,-530.826 808.236,-536.792 810.045,-530.029"/>
</g>
<!-- N23&#45;&gt;N17 -->
<g id="edge62" class="edge"><title>N23&#45;&gt;N17</title>
<path fill="none" stroke="black" d="M1046.82,-582.048C999.343,-560.408 890.262,-510.577 798.871,-468 797.086,-467.168 795.252,-466.311 793.402,-465.444"/>
<polygon fill="black" stroke="black" points="794.713,-462.193 784.175,-461.105 791.734,-468.528 794.713,-462.193"/>
</g>
<!-- N40 -->
<g id="node41" class="node"><title>N40</title>
<ellipse fill="none" stroke="black" cx="1290.87" cy="-522" rx="57.5065" ry="18"/>
<text text-anchor="middle" x="1290.87" y="-517.8" font-family="Times,serif" font-size="14.00">rustc_version</text>
</g>
<!-- N26&#45;&gt;N40 -->
<g id="edge63" class="edge"><title>N26&#45;&gt;N40</title>
<path fill="none" stroke="black" d="M1306.79,-576.055C1304.45,-568.261 1301.62,-558.822 1299,-550.079"/>
<polygon fill="black" stroke="black" points="1302.28,-548.848 1296.05,-540.275 1295.58,-550.859 1302.28,-548.848"/>
</g>
<!-- N27&#45;&gt;N7 -->
<g id="edge64" class="edge"><title>N27&#45;&gt;N7</title>
<path fill="none" stroke="black" d="M317.608,-73.811C334.941,-63.1679 358.209,-48.8806 376.643,-37.5613"/>
<polygon fill="black" stroke="black" points="378.567,-40.4872 385.257,-32.2719 374.904,-34.522 378.567,-40.4872"/>
</g>
<!-- N27&#45;&gt;N8 -->
<g id="edge65" class="edge"><title>N27&#45;&gt;N8</title>
<path fill="none" stroke="black" d="M292.871,-71.6966C292.871,-63.9827 292.871,-54.7125 292.871,-46.1124"/>
<polygon fill="black" stroke="black" points="296.372,-46.1043 292.871,-36.1043 289.372,-46.1044 296.372,-46.1043"/>
</g>
<!-- N30 -->
<g id="node31" class="node"><title>N30</title>
<ellipse fill="none" stroke="black" cx="1053.87" cy="-378" rx="71.9963" ry="18"/>
<text text-anchor="middle" x="1053.87" y="-373.8" font-family="Times,serif" font-size="14.00">libressl&#45;pnacl&#45;sys</text>
</g>
<!-- N31 -->
<g id="node32" class="node"><title>N31</title>
<ellipse fill="none" stroke="black" cx="977.871" cy="-306" rx="75.3448" ry="18"/>
<text text-anchor="middle" x="977.871" y="-301.8" font-family="Times,serif" font-size="14.00">pnacl&#45;build&#45;helper</text>
</g>
<!-- N30&#45;&gt;N31 -->
<g id="edge66" class="edge"><title>N30&#45;&gt;N31</title>
<path fill="none" stroke="black" d="M1035.86,-360.411C1026.18,-351.497 1014.09,-340.355 1003.45,-330.558"/>
<polygon fill="black" stroke="black" points="1005.74,-327.913 996.017,-323.713 1001,-333.062 1005.74,-327.913"/>
</g>
<!-- N39 -->
<g id="node40" class="node"><title>N39</title>
<ellipse fill="none" stroke="black" cx="922.871" cy="-234" rx="37.7266" ry="18"/>
<text text-anchor="middle" x="922.871" y="-229.8" font-family="Times,serif" font-size="14.00">tempdir</text>
</g>
<!-- N31&#45;&gt;N39 -->
<g id="edge67" class="edge"><title>N31&#45;&gt;N39</title>
<path fill="none" stroke="black" d="M964.558,-288.055C957.771,-279.418 949.397,-268.76 941.939,-259.268"/>
<polygon fill="black" stroke="black" points="944.614,-257.008 935.684,-251.307 939.11,-261.333 944.614,-257.008"/>
</g>
<!-- N35 -->
<g id="node36" class="node"><title>N35</title>
<ellipse fill="none" stroke="black" cx="834.871" cy="-450" rx="27" ry="18"/>
<text text-anchor="middle" x="834.871" y="-445.8" font-family="Times,serif" font-size="14.00">num</text>
</g>
<!-- N33&#45;&gt;N35 -->
<g id="edge68" class="edge"><title>N33&#45;&gt;N35</title>
<path fill="none" stroke="black" d="M1045.39,-514.867C1007.61,-505.874 936.215,-487.995 876.871,-468 873.489,-466.86 869.986,-465.591 866.512,-464.273"/>
<polygon fill="black" stroke="black" points="867.506,-460.903 856.919,-460.499 864.944,-467.417 867.506,-460.903"/>
</g>
<!-- N34&#45;&gt;N7 -->
<g id="edge69" class="edge"><title>N34&#45;&gt;N7</title>
<path fill="none" stroke="black" d="M89.7612,-77.6484C97.3715,-75.5928 105.343,-73.5978 112.871,-72 220.101,-49.2414 250.32,-61.7489 356.871,-36 361.251,-34.9417 365.791,-33.6633 370.27,-32.2882"/>
<polygon fill="black" stroke="black" points="371.453,-35.5839 379.888,-29.1717 369.296,-28.9248 371.453,-35.5839"/>
</g>
<!-- N34&#45;&gt;N8 -->
<g id="edge70" class="edge"><title>N34&#45;&gt;N8</title>
<path fill="none" stroke="black" d="M90.3251,-77.8309C131.801,-65.784 197.973,-46.5639 243.322,-33.392"/>
<polygon fill="black" stroke="black" points="244.323,-36.7459 252.95,-30.5954 242.371,-30.0237 244.323,-36.7459"/>
</g>
<!-- N35&#45;&gt;N2 -->
<g id="edge71" class="edge"><title>N35&#45;&gt;N2</title>
<path fill="none" stroke="black" d="M814.259,-438.304C809.307,-436.005 803.972,-433.745 798.871,-432 740.119,-411.895 670.58,-397.475 621.704,-388.8"/>
<polygon fill="black" stroke="black" points="622.052,-385.308 611.599,-387.036 620.849,-392.204 622.052,-385.308"/>
</g>
<!-- N35&#45;&gt;N36 -->
<g id="edge72" class="edge"><title>N35&#45;&gt;N36</title>
<path fill="none" stroke="black" d="M833.561,-431.966C829.894,-384.291 819.501,-249.185 814.997,-190.63"/>
<polygon fill="black" stroke="black" points="818.459,-190.009 814.203,-180.306 811.48,-190.545 818.459,-190.009"/>
</g>
<!-- N36&#45;&gt;N6 -->
<g id="edge73" class="edge"><title>N36&#45;&gt;N6</title>
<path fill="none" stroke="black" d="M791.598,-150.832C786.768,-148.558 781.653,-146.176 776.871,-144 750.636,-132.062 720.996,-119.072 697.618,-108.939"/>
<polygon fill="black" stroke="black" points="698.905,-105.682 688.337,-104.924 696.125,-112.107 698.905,-105.682"/>
</g>
<!-- N36&#45;&gt;N7 -->
<g id="edge74" class="edge"><title>N36&#45;&gt;N7</title>
<path fill="none" stroke="black" d="M805.178,-144.426C794.67,-123.803 773.778,-89.2076 744.871,-72 695.965,-42.8861 530.859,-27.6599 450.94,-21.8445"/>
<polygon fill="black" stroke="black" points="450.931,-18.3352 440.708,-21.1177 450.435,-25.3176 450.931,-18.3352"/>
</g>
<!-- N36&#45;&gt;N29 -->
<g id="edge75" class="edge"><title>N36&#45;&gt;N29</title>
<path fill="none" stroke="black" d="M792.294,-150.2C787.34,-147.906 781.996,-145.674 776.871,-144 696.417,-117.723 670.326,-134.277 589.871,-108 587.95,-107.372 585.997,-106.666 584.046,-105.908"/>
<polygon fill="black" stroke="black" points="585.019,-102.517 574.449,-101.8 582.265,-108.952 585.019,-102.517"/>
</g>
<!-- N37&#45;&gt;N15 -->
<g id="edge76" class="edge"><title>N37&#45;&gt;N15</title>
<path fill="none" stroke="black" d="M1012.48,-438.061C1005.3,-436.033 997.86,-433.943 990.871,-432 932.284,-415.711 905.997,-434.432 858.871,-396 791.76,-341.269 759.108,-238.519 746.852,-189.86"/>
<polygon fill="black" stroke="black" points="750.235,-188.957 744.478,-180.063 743.432,-190.606 750.235,-188.957"/>
</g>
<!-- N37&#45;&gt;N29 -->
<g id="edge77" class="edge"><title>N37&#45;&gt;N29</title>
<path fill="none" stroke="black" d="M1012.48,-438.061C1005.3,-436.033 997.86,-433.943 990.871,-432 932.284,-415.711 910.475,-428.168 858.871,-396 732.205,-317.04 750.217,-241.118 636.871,-144 620.33,-129.827 599.696,-116.634 583.139,-106.956"/>
<polygon fill="black" stroke="black" points="584.829,-103.891 574.412,-101.957 581.35,-109.965 584.829,-103.891"/>
</g>
<!-- N37&#45;&gt;N30 -->
<g id="edge78" class="edge"><title>N37&#45;&gt;N30</title>
<path fill="none" stroke="black" d="M1051.61,-431.697C1051.94,-423.983 1052.34,-414.712 1052.71,-406.112"/>
<polygon fill="black" stroke="black" points="1056.21,-406.245 1053.14,-396.104 1049.21,-405.945 1056.21,-406.245"/>
</g>
<!-- N38 -->
<g id="node39" class="node"><title>N38</title>
<ellipse fill="none" stroke="black" cx="915.871" cy="-378" rx="48.3514" ry="18"/>
<text text-anchor="middle" x="915.871" y="-373.8" font-family="Times,serif" font-size="14.00">pkg&#45;config</text>
</g>
<!-- N37&#45;&gt;N38 -->
<g id="edge79" class="edge"><title>N37&#45;&gt;N38</title>
<path fill="none" stroke="black" d="M1023.23,-434.666C1002.62,-423.978 974.28,-409.286 951.896,-397.679"/>
<polygon fill="black" stroke="black" points="953.507,-394.572 943.018,-393.076 950.285,-400.786 953.507,-394.572"/>
</g>
<!-- N39&#45;&gt;N36 -->
<g id="edge80" class="edge"><title>N39&#45;&gt;N36</title>
<path fill="none" stroke="black" d="M901.139,-219.17C883.734,-208.095 859.21,-192.488 840.428,-180.536"/>
<polygon fill="black" stroke="black" points="842.303,-177.58 831.987,-175.164 838.544,-183.486 842.303,-177.58"/>
</g>
<!-- N41 -->
<g id="node42" class="node"><title>N41</title>
<ellipse fill="none" stroke="black" cx="1329.87" cy="-450" rx="35.7887" ry="18"/>
<text text-anchor="middle" x="1329.87" y="-445.8" font-family="Times,serif" font-size="14.00">semver</text>
</g>
<!-- N40&#45;&gt;N41 -->
<g id="edge81" class="edge"><title>N40&#45;&gt;N41</title>
<path fill="none" stroke="black" d="M1300.31,-504.055C1304.91,-495.801 1310.54,-485.701 1315.64,-476.538"/>
<polygon fill="black" stroke="black" points="1318.71,-478.228 1320.52,-467.789 1312.59,-474.821 1318.71,-478.228"/>
</g>
<!-- N42&#45;&gt;N2 -->
<g id="edge82" class="edge"><title>N42&#45;&gt;N2</title>
<path fill="none" stroke="black" d="M667.589,-437.908C648.546,-427.494 619.612,-411.67 596.524,-399.045"/>
<polygon fill="black" stroke="black" points="598.129,-395.933 587.676,-394.206 594.771,-402.075 598.129,-395.933"/>
</g>
<!-- N42&#45;&gt;N36 -->
<g id="edge83" class="edge"><title>N42&#45;&gt;N36</title>
<path fill="none" stroke="black" d="M695.132,-432.387C716.017,-384.603 776.358,-246.544 801.58,-188.835"/>
<polygon fill="black" stroke="black" points="804.793,-190.223 805.591,-179.659 798.379,-187.42 804.793,-190.223"/>
</g>
</g>
</svg>
